<svg xmlns="http://www.w3.org/2000/svg" version="1.1" xmlns:xlink="http://www.w3.org/1999/xlink" xmlns:svgjs="http://svgjs.dev/svgjs" width="1000" height="1000" viewBox="0 0 1000 1000"><rect width="1000" height="1000" fill="#ffffff"></rect><g transform="matrix(0.7,0,0,0.7,149.57577504905078,457.803930926422)"><svg viewBox="0 0 396 48" data-background-color="#ffffff" preserveAspectRatio="xMidYMid meet" height="121" width="1000" xmlns="http://www.w3.org/2000/svg" xmlns:xlink="http://www.w3.org/1999/xlink"><g id="tight-bounds" transform="matrix(1,0,0,1,0.23999011510841228,-0.08723358286019334)"><svg viewBox="0 0 395.52 48.174467165720394" height="48.174467165720394" width="395.52"><g><svg viewBox="0 0 463.59056407543443 56.46548444425014" height="48.174467165720394" width="395.52"><g transform="matrix(1,0,0,1,68.07056407543446,3.653624414333674)"><svg viewBox="0 0 395.52 49.15823561558279" height="49.15823561558279" width="395.52"><g id="textblocktransform"><svg viewBox="0 0 395.52 49.15823561558279" height="49.15823561558279" width="395.52" id="textblock"><g><svg viewBox="0 0 395.52 49.15823561558279" height="49.15823561558279" width="395.52"><g transform="matrix(1,0,0,1,0,0)"><svg width="395.52" viewBox="2.759999990463257 -38.11000061035156 312.6999816894531 38.869998931884766" height="49.15823561558279" data-palette-color="#4790fc"><path d="M2.76-29.59L2.76-37.01 31.4-37.01 31.4-24.39 23.46-24.39 23.46-29.59 14.7-29.59 14.7-21.8 22.29-21.8 22.29-14.7 14.7-14.7 14.7-6.69 18.6-6.69 18.6 0 2.76 0 2.76-6.69 6.59-6.69 6.59-29.59 2.76-29.59ZM34.15-30.3L34.15-37.01 50-37.01 50-30.3 46.09-30.3 46.09-6.69 54.15-6.69Q54.47-6.69 54.77-6.87 55.08-7.06 55.31-7.35 55.54-7.64 55.69-7.98 55.83-8.33 55.83-8.64L55.83-8.64 55.83-13.6 63.74-13.6 63.74 0 34.15 0 34.15-6.69 37.99-6.69 37.99-30.3 34.15-30.3ZM86.05 0L86.05-6.69 89.74-6.69 88.08-12.01 76.7-12.01 75.04-6.69 78.95-6.69 78.95 0 64.91 0 64.91-6.69 67.67-6.69 77.75-37.01 87.54-37.01 97.41-6.69 100.09-6.69 100.09 0 86.05 0ZM82.34-30.3L78.63-18.26 86.1-18.26 82.34-30.3ZM121.21-24.44L121.21-26.59Q121.09-27.44 120.61-28.2 120.13-28.96 119.39-29.5 118.64-30.05 117.7-30.37 116.76-30.69 115.74-30.69L115.74-30.69Q114.81-30.69 114.01-30.49 113.2-30.3 112.6-29.9 112-29.49 111.65-28.86 111.3-28.22 111.3-27.34L111.3-27.34Q111.3-26.25 111.77-25.6 112.25-24.95 112.99-24.54 113.74-24.12 114.64-23.88 115.54-23.63 116.4-23.34L116.4-23.34 123.11-21.09Q124.5-20.61 125.72-19.75 126.95-18.9 127.84-17.68 128.73-16.46 129.24-14.87 129.75-13.28 129.75-11.3L129.75-11.3Q129.75-8.62 128.76-6.4 127.78-4.17 125.99-2.59 124.21-1 121.72-0.12 119.23 0.76 116.2 0.76L116.2 0.76Q114.08 0.76 112.19 0.28 110.3-0.2 108.73-1.1 107.17-2 106-3.26 104.83-4.52 104.17-6.1L104.17-6.1 101.65-6.1 101.65-13.45 110.49-13.45 110.49-11.94Q110.49-10.84 110.84-9.91 111.2-8.98 111.91-8.3 112.61-7.62 113.69-7.24 114.76-6.86 116.2-6.86L116.2-6.86Q118.4-6.86 119.55-7.87 120.7-8.89 120.7-10.69L120.7-10.69Q120.7-11.62 120.29-12.24 119.89-12.87 119.26-13.29 118.62-13.72 117.84-14.01 117.06-14.31 116.3-14.55L116.3-14.55 110.71-16.36Q109.12-16.85 107.65-17.72 106.17-18.6 105.03-19.92 103.9-21.24 103.23-23.01 102.56-24.78 102.56-27.05L102.56-27.05Q102.56-29.69 103.53-31.75 104.51-33.81 106.27-35.23 108.02-36.65 110.44-37.38 112.86-38.11 115.74-38.11L115.74-38.11Q118.01-38.11 119.94-37.59 121.87-37.06 123.39-36.18 124.92-35.3 125.98-34.17 127.04-33.03 127.6-31.81L127.6-31.81 130.05-31.81 130.05-24.44 121.21-24.44ZM158.58-30.3L158.58-37.01 174.45-37.01 174.45-30.3 170.55-30.3 170.55-6.69 174.45-6.69 174.45 0 158.58 0 158.58-6.69 162.44-6.69 162.44-16.16 145.74-16.16 145.74-6.69 149.65-6.69 149.65 0 133.8 0 133.8-6.69 137.64-6.69 137.64-30.3 133.8-30.3 133.8-37.01 149.65-37.01 149.65-30.3 145.74-30.3 145.74-22.61 162.44-22.61 162.44-30.3 158.58-30.3ZM179.94-30.3L179.94-37.01 197.03-37.01Q199.89-37.01 202.28-36.12 204.68-35.23 206.41-33.72 208.14-32.2 209.12-30.22 210.09-28.25 210.09-26.1L210.09-26.1Q210.09-23.51 209.33-21.25 208.56-18.99 206.95-17.33 205.33-15.67 202.87-14.71 200.4-13.75 197.03-13.75L197.03-13.75 191.88-13.75 191.88-6.69 195.28-6.69 195.28 0 179.94 0 179.94-6.69 183.78-6.69 183.78-30.3 179.94-30.3ZM195.23-30.3L191.88-30.3 191.88-20.36 195.23-20.36Q198.01-20.36 199.65-21.53 201.28-22.71 201.28-25.24L201.28-25.24Q201.28-27.61 199.74-28.96 198.21-30.3 195.23-30.3L195.23-30.3ZM230.87 0.66L230.87 0.66Q228.35 0.66 226.06-0.02 223.76-0.71 221.77-1.95 219.78-3.2 218.16-4.94 216.54-6.69 215.39-8.83 214.24-10.96 213.61-13.4 212.97-15.84 212.97-18.51L212.97-18.51Q212.97-21.17 213.61-23.62 214.24-26.07 215.39-28.21 216.54-30.35 218.16-32.09 219.78-33.84 221.77-35.08 223.76-36.33 226.06-37.01 228.35-37.7 230.87-37.7L230.87-37.7Q233.38-37.7 235.69-37.01 238-36.33 239.99-35.08 241.98-33.84 243.6-32.09 245.22-30.35 246.38-28.21 247.54-26.07 248.18-23.62 248.81-21.17 248.81-18.51L248.81-18.51Q248.81-15.87 248.18-13.42 247.54-10.96 246.38-8.83 245.22-6.69 243.6-4.94 241.98-3.2 239.99-1.95 238-0.71 235.69-0.02 233.38 0.66 230.87 0.66ZM230.87-7.01L230.87-7.01Q232.99-7.01 234.76-7.92 236.53-8.84 237.8-10.41 239.07-11.99 239.77-14.07 240.46-16.16 240.46-18.51L240.46-18.51Q240.46-20.87 239.76-22.97 239.05-25.07 237.77-26.65 236.48-28.22 234.73-29.14 232.97-30.05 230.87-30.05L230.87-30.05Q228.77-30.05 227.01-29.14 225.25-28.22 223.98-26.65 222.71-25.07 221.99-22.97 221.27-20.87 221.27-18.51L221.27-18.51Q221.27-16.16 221.99-14.07 222.71-11.99 223.98-10.41 225.25-8.84 227.01-7.92 228.77-7.01 230.87-7.01ZM271.47-24.44L271.47-26.59Q271.34-27.44 270.87-28.2 270.39-28.96 269.65-29.5 268.9-30.05 267.96-30.37 267.02-30.69 266-30.69L266-30.69Q265.07-30.69 264.26-30.49 263.46-30.3 262.86-29.9 262.26-29.49 261.91-28.86 261.55-28.22 261.55-27.34L261.55-27.34Q261.55-26.25 262.03-25.6 262.51-24.95 263.25-24.54 264-24.12 264.9-23.88 265.8-23.63 266.66-23.34L266.66-23.34 273.37-21.09Q274.76-20.61 275.98-19.75 277.2-18.9 278.1-17.68 278.99-16.46 279.5-14.87 280.01-13.28 280.01-11.3L280.01-11.3Q280.01-8.62 279.02-6.4 278.03-4.17 276.25-2.59 274.47-1 271.98-0.12 269.49 0.76 266.46 0.76L266.46 0.76Q264.34 0.76 262.45 0.28 260.55-0.2 258.99-1.1 257.43-2 256.26-3.26 255.09-4.52 254.43-6.1L254.43-6.1 251.91-6.1 251.91-13.45 260.75-13.45 260.75-11.94Q260.75-10.84 261.1-9.91 261.46-8.98 262.17-8.3 262.87-7.62 263.95-7.24 265.02-6.86 266.46-6.86L266.46-6.86Q268.66-6.86 269.81-7.87 270.95-8.89 270.95-10.69L270.95-10.69Q270.95-11.62 270.55-12.24 270.15-12.87 269.51-13.29 268.88-13.72 268.1-14.01 267.32-14.31 266.56-14.55L266.56-14.55 260.97-16.36Q259.38-16.85 257.9-17.72 256.43-18.6 255.29-19.92 254.16-21.24 253.49-23.01 252.81-24.78 252.81-27.05L252.81-27.05Q252.81-29.69 253.79-31.75 254.77-33.81 256.53-35.23 258.28-36.65 260.7-37.38 263.12-38.11 266-38.11L266-38.11Q268.27-38.11 270.2-37.59 272.13-37.06 273.65-36.18 275.18-35.3 276.24-34.17 277.3-33.03 277.86-31.81L277.86-31.81 280.3-31.81 280.3-24.44 271.47-24.44ZM290.41 0L290.41-6.69 294.24-6.69 294.24-30.54 289.75-30.54 289.75-25.76 281.79-25.76 281.79-37.01 315.46-37.01 315.46-25.76 307.45-25.76 307.45-30.54 302.35-30.54 302.35-6.69 306.25-6.69 306.25 0 290.41 0Z" opacity="1" transform="matrix(1,0,0,1,0,0)" fill="#000000" class="wordmark-text-0" data-fill-palette-color="primary" id="text-0"></path></svg></g></svg></g></svg></g></svg></g><g><svg viewBox="0 0 56.46548444425014 56.46548444425014" height="56.46548444425014" width="56.46548444425014"><g><svg></svg></g><g id="icon-0"><svg viewBox="0 0 56.46548444425014 56.46548444425014" height="56.46548444425014" width="56.46548444425014"><g><rect width="51.34176455949411" height="51.34176455949411" x="2.561859942378014" y="2.561859942378014" fill="#000000" data-fill-palette-color="accent"></rect><rect width="51.34176455949411" height="51.34176455949411" x="5.12371988475603" y="-1.3322676295501878e-15" fill="#000000" opacity="0.5" data-fill-palette-color="accent"></rect></g><g transform="matrix(1,0,0,1,13.168656665613918,7.319599835365757)"><svg viewBox="0 0 30.1281711130223 41.82628477351862" height="41.82628477351862" width="30.1281711130223"><g><svg xmlns:dc="http://purl.org/dc/elements/1.1/" xmlns:cc="http://creativecommons.org/ns#" xmlns:rdf="http://www.w3.org/1999/02/22-rdf-syntax-ns#" xmlns:svg="http://www.w3.org/2000/svg" xmlns="http://www.w3.org/2000/svg" xmlns:sodipodi="http://sodipodi.sourceforge.net/DTD/sodipodi-0.dtd" xmlns:inkscape="http://www.inkscape.org/namespaces/inkscape" version="1.1" viewBox="29.39183235168457 17.831083297729492 47.478614807128906 65.91352844238281" xml:space="preserve" x="0" y="0" height="41.82628477351862" width="30.1281711130223" class="icon-s-0" data-fill-palette-color="background" id="s-0"><g fill="#ffffff" fill-opacity="1" stroke="none" data-fill-palette-color="background"><path d="M32.957 83.745l3.783-18.522-7.348 0 0-6.479 8.652 0 3.217-15.782-11.869 0 0-6.479 13.174 0 3.782-18.652 6.522 0-3.782 18.652 13.695 0 3.783-18.652 6.565 0-3.782 18.652 7.521 0 0 6.479-8.826 0-3.261 15.782 12.087 0 0 6.479-13.391 0-3.783 18.522-6.521 0 3.739-18.522-13.652 0-3.783 18.522z m11.609-25.001l13.652 0 3.261-15.782-13.696 0z" fill="#ffffff" fill-opacity="1" stroke="none" data-fill-palette-color="background"></path></g></svg></g></svg></g></svg></g></svg></g></svg></g><defs></defs></svg><rect width="395.52" height="48.174467165720394" fill="none" stroke="none" visibility="hidden"></rect></g></svg></g></svg>